<?xml version="1.0" encoding="UTF-8" standalone="no"?>
<!-- Created with Inkscape (http://www.inkscape.org/) -->

<svg
   xmlns:dc="http://purl.org/dc/elements/1.1/"
   xmlns:cc="http://creativecommons.org/ns#"
   xmlns:rdf="http://www.w3.org/1999/02/22-rdf-syntax-ns#"
   xmlns:svg="http://www.w3.org/2000/svg"
   xmlns="http://www.w3.org/2000/svg"
   xmlns:sodipodi="http://sodipodi.sourceforge.net/DTD/sodipodi-0.dtd"
   xmlns:inkscape="http://www.inkscape.org/namespaces/inkscape"
   width="85.736023mm"
   height="15.706013mm"
   viewBox="0 0 85.736023 15.706013"
   version="1.1"
   id="svg8"
   inkscape:version="0.92.4 (5da689c313, 2019-01-14)"
   sodipodi:docname="logo.svg">
  <defs
     id="defs2" />
  <sodipodi:namedview
     id="base"
     pagecolor="#ffffff"
     bordercolor="#666666"
     borderopacity="1.0"
     inkscape:pageopacity="0.0"
     inkscape:pageshadow="2"
     inkscape:zoom="0.77058782"
     inkscape:cx="199.04482"
     inkscape:cy="-295.90503"
     inkscape:document-units="mm"
     inkscape:current-layer="layer1"
     showgrid="false"
     inkscape:window-width="1920"
     inkscape:window-height="1017"
     inkscape:window-x="-8"
     inkscape:window-y="-8"
     inkscape:window-maximized="1" />
  <metadata
     id="metadata5">
    <rdf:RDF>
      <cc:Work
         rdf:about="">
        <dc:format>image/svg+xml</dc:format>
        <dc:type
           rdf:resource="http://purl.org/dc/dcmitype/StillImage" />
        <dc:title></dc:title>
      </cc:Work>
    </rdf:RDF>
  </metadata>
  <g
     inkscape:label="Layer 1"
     inkscape:groupmode="layer"
     id="layer1"
     transform="translate(-50.962648,-54.502447)">
    <text
       xml:space="preserve"
       style="font-style:normal;font-variant:normal;font-weight:bold;font-stretch:normal;font-size:18.62087059px;line-height:1.25;font-family:'Century Gothic';-inkscape-font-specification:'Century Gothic, Bold';font-variant-ligatures:normal;font-variant-caps:normal;font-variant-numeric:normal;font-feature-settings:normal;text-align:start;letter-spacing:0px;word-spacing:0px;writing-mode:lr-tb;text-anchor:start;fill:#d94a56;fill-opacity:1;stroke:#000000;stroke-width:0.62680489;stroke-miterlimit:4;stroke-dasharray:none;stroke-opacity:1"
       x="48.64415"
       y="70.862617"
       id="text840"
       transform="scale(1.0359161,0.96532915)"><tspan
         sodipodi:role="line"
         id="tspan838"
         x="48.64415"
         y="70.862617"
         style="font-style:normal;font-variant:normal;font-weight:bold;font-stretch:normal;font-size:18.62087059px;font-family:'Century Gothic';-inkscape-font-specification:'Century Gothic, Bold';font-variant-ligatures:normal;font-variant-caps:normal;font-variant-numeric:normal;font-feature-settings:normal;text-align:start;writing-mode:lr-tb;text-anchor:start;fill:#d94a56;fill-opacity:1;stroke:#000000;stroke-width:0.62680489;stroke-miterlimit:4;stroke-dasharray:none;stroke-opacity:1">B   arders</tspan></text>
    <g
       id="g1503"
       transform="matrix(0.03091837,0,0,0.02594896,61.888121,56.316126)"
       style="stroke:#8a5a72;stroke-opacity:1">
      <g
         id="g1495"
         style="stroke:#8a5a72;stroke-opacity:1">
        <g
           id="XMLID_75_"
           style="stroke:#8a5a72;stroke-opacity:1">
          <path
             id="path1465"
             d="M 375.47,188.244 256,395.173 136.529,188.244 Z"
             inkscape:connector-curvature="0"
             style="fill:#f9dfe5;stroke:#8a5a72;stroke-opacity:1" />
        </g>
        <g
           id="XMLID_74_"
           style="stroke:#8a5a72;stroke-opacity:1">
          <path
             id="path1468"
             d="M 375.47,188.244 256,10 136.529,188.244 Z"
             inkscape:connector-curvature="0"
             style="fill:#f2beca;stroke:#8a5a72;stroke-opacity:1" />
        </g>
        <g
           id="XMLID_73_"
           style="stroke:#8a5a72;stroke-opacity:1">
          <path
             id="path1471"
             d="M 375.47,188.244 256,10 471.965,133.445 Z"
             inkscape:connector-curvature="0"
             style="fill:#f9dfe5;stroke:#8a5a72;stroke-opacity:1" />
        </g>
        <g
           id="XMLID_72_"
           style="stroke:#8a5a72;stroke-opacity:1">
          <path
             id="path1474"
             d="M 136.53,188.244 256,10 40.035,133.445 Z"
             inkscape:connector-curvature="0"
             style="fill:#f9dfe5;stroke:#8a5a72;stroke-opacity:1" />
        </g>
        <g
           id="XMLID_71_"
           style="stroke:#8a5a72;stroke-opacity:1">
          <path
             id="path1477"
             d="M 375.47,188.244 256,395.173 471.965,375.39 Z"
             inkscape:connector-curvature="0"
             style="fill:#ec9eb0;stroke:#8a5a72;stroke-opacity:1" />
        </g>
        <g
           id="XMLID_70_"
           style="stroke:#8a5a72;stroke-opacity:1">
          <path
             id="path1480"
             d="m 375.47,188.244 96.495,-54.799 V 375.39 Z"
             inkscape:connector-curvature="0"
             style="fill:#ec9eb0;stroke:#8a5a72;stroke-opacity:1" />
        </g>
        <g
           id="XMLID_69_"
           style="stroke:#8a5a72;stroke-opacity:1">
          <path
             id="path1483"
             d="M 136.53,188.244 40.035,133.445 V 375.39 Z"
             inkscape:connector-curvature="0"
             style="fill:#ec9eb0;stroke:#8a5a72;stroke-opacity:1" />
        </g>
        <g
           id="XMLID_68_"
           style="stroke:#8a5a72;stroke-opacity:1">
          <path
             id="path1486"
             d="M 256,502 V 395.173 L 471.965,375.39 Z"
             inkscape:connector-curvature="0"
             style="fill:#e67e95;stroke:#8a5a72;stroke-opacity:1" />
        </g>
        <g
           id="XMLID_67_"
           style="stroke:#8a5a72;stroke-opacity:1">
          <path
             id="path1489"
             d="M 256,502 V 395.173 L 40.035,375.39 Z"
             inkscape:connector-curvature="0"
             style="fill:#e67e95;stroke:#8a5a72;stroke-opacity:1" />
        </g>
        <g
           id="XMLID_66_"
           style="stroke:#8a5a72;stroke-opacity:1">
          <path
             id="path1492"
             d="M 136.53,188.244 256,395.173 40.035,375.39 Z"
             inkscape:connector-curvature="0"
             style="fill:#ec9eb0;stroke:#8a5a72;stroke-opacity:1" />
        </g>
      </g>
      <g
         id="g1501"
         style="stroke:#8a5a72;stroke-opacity:1">
        <path
           id="path1497"
           d="M 476.927,124.764 260.962,1.318 c -3.074,-1.758 -6.851,-1.758 -9.925,0 L 35.073,124.764 c -3.115,1.78 -5.038,5.094 -5.038,8.682 V 375.39 c 0,3.549 1.881,6.832 4.942,8.627 l 215.965,126.61 c 1.562,0.916 3.31,1.373 5.058,1.373 1.748,0 3.496,-0.458 5.058,-1.373 l 215.965,-126.61 c 3.062,-1.795 4.942,-5.078 4.942,-8.627 V 133.445 c 0,-3.588 -1.923,-6.901 -5.038,-8.681 z M 50.035,150.625 123.24,192.198 50.035,334.174 Z M 301,198.244 h 57.15 L 256,375.173 153.85,198.244 H 211 c 5.523,0 10,-4.477 10,-10 0,-5.523 -4.477,-10 -10,-10 H 155.271 L 256,27.961 356.729,178.244 H 301 c -5.523,0 -10,4.477 -10,10 0,5.523 4.477,10 10,10 z M 237.687,383.454 55.723,366.785 137.025,209.104 Z m 137.287,-174.351 81.303,157.682 -181.964,16.669 z m 3.633,-34.141 -90.576,-135.135 163.734,93.59 z M 133.393,174.963 60.236,133.417 223.97,39.827 Z M 246,404.299 v 80.247 L 83.77,389.438 Z m 20,0 L 428.23,389.438 266,484.546 Z m 122.76,-212.102 73.205,-41.573 v 183.55 z"
           inkscape:connector-curvature="0"
           style="stroke:#8a5a72;stroke-opacity:1" />
        <circle
           id="circle1499"
           r="10"
           cy="188.244"
           cx="256"
           style="stroke:#8a5a72;stroke-opacity:1" />
      </g>
    </g>
  </g>
</svg>
